<?xml version="1.0" standalone="no"?><!DOCTYPE svg PUBLIC "-//W3C//DTD SVG 1.1//EN" "http://www.w3.org/Graphics/SVG/1.1/DTD/svg11.dtd"><svg class="icon" width="200px" height="200.00px" viewBox="0 0 1024 1024" version="1.1" xmlns="http://www.w3.org/2000/svg"><path d="M554.127 664.27H256.045l49.703 94.225h316.606zM872.062 664H727.498l-75.2 94.225h154.086z" fill="#8C4D12" /><path d="M233.728 664.27h-81.386l55 94.225h75.966z" fill="#57310E" /><path d="M808.332 645.966c18.062-119.394-31.525-212.285-148.761-278.671-84.126-47.744-209.76-34.23-253.703-9.172 177.87 78.994 160.753 238.125 160.753 287.843a2550.883 2550.883 0 0 1 70.962 96.266l77.89-96.266h92.859z" fill="#FA8911" /><path d="M472.89 429.556c-40.561-37.61-117.978-74.809-154.484-82.413-36.506-7.603-56.573-9.265-68.555-23.823-11.982-14.558 9.918-46.522-14.358-55.112-24.276-8.59-36.896 9.583-36.896 25.235 0 15.653 0.28 18.603-2.564 20.533-2.843 1.93-31.49 6.155-37.454 23.08-5.964 16.927 7.66 32.35 21.862 30.239 14.202-2.112 24.902-15.172 36.368-12.548 11.466 2.624 17.125 13.01 17.125 24.6 0 11.59 17.6 87.431 58.282 102.204-13.105 3.396-69.858 46.406-83.02 74.122-13.163 27.716-7.746 51.23 1.429 65.455 6.117 9.484 11.863 17.63 17.24 24.437h317.108c7.83-126.215-31.523-178.398-72.084-216.009z" fill="#FFBB00" /></svg>