<?xml version="1.0" standalone="no"?><!DOCTYPE svg PUBLIC "-//W3C//DTD SVG 1.1//EN" "http://www.w3.org/Graphics/SVG/1.1/DTD/svg11.dtd"><svg t="1670337884913" class="icon" viewBox="0 0 1024 1024" version="1.1" xmlns="http://www.w3.org/2000/svg" p-id="16111" xmlns:xlink="http://www.w3.org/1999/xlink" width="200" height="200"><path d="M657.9 250c-43.1 0-84.2 16.3-115.5 46.2-3 2.8-18.8 18.8-31 31.2l-31-30.9c-31.3-30-72.4-46.5-115.9-46.5-92.5 0-167.6 75.3-167.6 167.6 0 54 26.9 94.5 50.1 119.5l207.5 209.7c16.4 16.4 34.7 27.1 56.8 27.1 22.1 0 40.3-10.7 56.8-27.1l207.4-209.5 1.5-1.6c25-31.2 48.7-60.7 48.7-117.9-0.2-92.6-75.5-167.8-167.8-167.8z m0 0" fill="#F6C04D" p-id="16112"></path></svg>