<?xml version="1.0" standalone="no"?><!DOCTYPE svg PUBLIC "-//W3C//DTD SVG 1.1//EN" "http://www.w3.org/Graphics/SVG/1.1/DTD/svg11.dtd"><svg t="1670301892488" class="icon" viewBox="0 0 1024 1024" version="1.1" xmlns="http://www.w3.org/2000/svg" p-id="1856" xmlns:xlink="http://www.w3.org/1999/xlink" width="200" height="200"><path d="M810.155 45.323c-10.566-7.542-10.566-34.698-244.398 173.497-87.513 72.418-161.438 119.187-171.992 117.68-10.564-1.506 55.064-24.142 109.374-98.066C261.754 342.525 270.05 378.739 262.881 401.61c-66.247 24.905-101.463 504.409 158.038 511.198 106.354 148.602 279.604 13.578 318.831-1.506 12.064-20.113 60.348-49.283-80.466-189.092-92.529-186.066-120.685-176-173.996-299.716 24.142-12.071 201.659-130.25 227.309-162.433 148.348-128.743 90.014-215.248 97.558-214.738z" fill="#D77552" p-id="1857"></path><path d="M302.752 819.682s43.16-61.256 154.107-81.682c9.998-1.848-154.107 81.682-154.107 81.682zM264.142 715.109s43.149-61.256 154.117-81.682c9.979-1.857-154.117 81.682-154.117 81.682zM238.405 610.529s43.147-61.258 154.106-81.682c9.991-1.849-154.106 81.682-154.106 81.682zM654.383 213.987s26.039 5.116 48.656 38.063c2.037 2.964-48.656-38.063-48.656-38.063zM620.575 240.575s26.041 5.126 48.656 38.072c2.035 2.955-48.656-38.072-48.656-38.072zM682.633 187.399s26.041 5.106 48.656 38.053c2.035 2.964-48.656-38.053-48.656-38.053zM712.742 160.801s26.041 5.116 48.646 38.063c2.048 2.964-48.646-38.063-48.646-38.063z" fill="#F5E829" p-id="1858"></path></svg>