<?xml version="1.0" standalone="no"?><!DOCTYPE svg PUBLIC "-//W3C//DTD SVG 1.1//EN" "http://www.w3.org/Graphics/SVG/1.1/DTD/svg11.dtd"><svg t="1670301870043" class="icon" viewBox="0 0 1024 1024" version="1.1" xmlns="http://www.w3.org/2000/svg" p-id="1219" xmlns:xlink="http://www.w3.org/1999/xlink" width="200" height="200"><path d="M281.6 123.7c-3.7 7.1-8.6 13.9-10 21.8-2.3 13 5.5 26.6 1.6 39.2-2.7 8.6-10.7 16.2-8.6 25 0.8 3.4 3.1 6.3 4.8 9.4 5.3 10 3.5 22.4-1.3 32.6-4.8 10.2-12.1 19-18.4 28.3-23.5 34.9-31.5 78.2-53 114.3-3.2 5.3-6.7 11.7-4 17.3 0.9 1.9 4.2 3.4 3.5 5.4-2.7 7-5.1 14.2-12.4 13.1 8.2 2.9 18.3 14.3 20.7 29.4 2.4 15.2 2.3 32.4 13.3 43.1 11.5 11.1 29.6 10 45.6 9.8 41.8-0.3 82.5 11.9 122.6 23.9 49.4 14.9 98.8 29.7 147.1 48 42 15.9 85.1 34.8 129.8 31.1 16.1-1.3 32-5.6 48.2-5.1 14.4 0.5 28.4 4.8 42.8 5.9 23.3 1.9 46.6-4.6 70-3.9 2.7 0.1 5.4 0.3 7.8-0.9 2.7-1.3 4.5-4 6.1-6.5 17.9-28.3 35.8-56.6 53.8-85 0.9-24.5 12-45.5 20.6-68.5 11.5-30.3 10.3-64.3 2.1-95.6-8.1-31.3-22.9-60.5-38.3-89-6.2-11.5-12.6-23.1-21.3-32.9-20.8-23.4-52.3-34.2-83.1-39.7-30.8-5.5-62.5-6.5-92.6-15.1-16.1-4.5-31.5-11.1-46.9-17.4-78.1-31.7-159.2-55.6-242-71.4-22.1-4.2-46.3-9-60.8-26.3-3.5 7.9-7.2 16.1-14.2 21.1-7.2 5.3-27.2 26.4-33.5 38.6z" fill="#CA5448" p-id="1220"></path><path d="M674.7 213.3c5.6 2.8 11.6 6.2 13.6 12.1 1.8 5.2 0 10.9-2 16-20 50.9-58.7 96-62.4 150.6-4 59.7 35.5 113.8 80.8 152.8 6.7 5.8 13.6 16.9 6.3 21.9-1.7 1.1-3.7 1.5-5.7 1.9-45.3 7.8-91.7 4.9-137.5 1-107.3-9.2-214.1-24.1-319.9-44.6-12-2.3-24.1-4.8-35.4-9.4-14.4-5.9-27.3-15.2-37.4-27 5.4-34.5 27.7-63.8 39.5-96.7 7.3-20.2 10.6-41.9 20-61.3 5.7-11.9 13.6-22.6 20.3-33.9 13.4-22.5 22.2-47.4 31-72.1 10.4-29.4 20.8-58.7 31.3-88.1 4-11.2 9.6-24 21.1-26.9 4.7-1.2 9.6-0.4 14.3 0.3C408 118.3 459.8 128.2 513 146c55.7 18.5 106.9 47.6 161.7 67.3z" fill="#E25C38" p-id="1221"></path><path d="M298.3 100.9c7.9-11 20.9-13.6 27.9-29.2-7 15.6-14 31.2-21 46.9-8.4 18.8-17.1 38.5-16.3 59.1 8.7-30.8 21.6-60.5 38.2-87.9-5.3 56.1-32.4 107.5-58.9 157.1 1.8-3.3 0.4-12.9 1.2-17.1 1.2-6.4 3.3-12.6 5-18.8 3.5-12.2 2.4-39.7 1-52.5-3-27.8 6.8-35 22.9-57.6z" fill="#FFE8D4" opacity=".8" p-id="1222"></path><path d="M318.2 128.7c-11.1 64.4-56.2 117.2-80.2 178-12.7 32.1-19.5 66.4-34.5 97.5-3.5 7.3-7.6 14.7-7.8 22.8-0.2 5.8 1.6 11.5 3.4 17.1 4.5 13.9 9 27.9 13.4 41.8 37.6-16.1 79.7 3.5 119.1 14.5 94.4 26.3 194.4 2.1 292.2-4.8 8.6-0.6 17.7-0.9 25.1 3.5-28.4-35.4-59.4-72.7-102.6-86.5-13.7-4.4-28.1-6.2-41.2-12.1-8.2-3.7-15.7-8.9-23.4-13.6-50.3-30.8-112.1-40.7-159.2-76.2-13.8-10.4-27.1-25.7-24.1-42.7 2.5-14.4 16.4-24.6 30.8-27.4s29.1 0.3 43.4 3.3c42.5 9.1 85.1 18.1 127.6 27.2-31-19.3-64.1-35.1-98.5-47.1-13.7-4.8-28.3-9.4-37.9-20.2-9.6-10.8-11.1-30.3 0.9-38.3 7.1-4.7 16.3-4.1 24.7-3.4l71.4 6.3c-35.9-6.8-73.4-14.4-101.5-37.7 20.2-2.3 40.7-1.8 60.8 1.5-19.2-4.7-38.4-9.3-57.7-14-7.2-1.7-15.2-4.2-18.3-10.8-1.8-3.9-1.5-8.6-3.7-12.3-10.9-19.3-21.4 29.1-22.2 33.6z" fill="#A02A0E" opacity=".5" p-id="1223"></path><path d="M344.6 456.3c-0.7 2.6-1.2 5.5 0.1 7.9 0.9 1.6 2.5 2.6 4.1 3.5 17.7 9.9 39.3 7.6 59.5 5.7 42.7-4.1 85.6-5.5 128.5-4.1-21.4-2.4-43-4.9-62.9-13-4.5-1.8-8.9-4-13.3-6.1-25.5-12.5-49.7-30-75.7-41.1-26.3-11.3-35 26.1-40.3 47.2z" fill="#A02A0E" p-id="1224"></path><path d="M678.4 307.6C658 337.5 645 374 650.1 409.8c3.8 27.3 17.7 52 31.2 76 7.1 12.6 14.3 25.2 21.4 37.8 13.1 23.2 28.4 48.2 53.8 56.3 19.4 6.2 41.6 0.5 57.2-12.5 15.7-13 25.1-32.6 28-52.8 1.7-11.6 1.5-23.5 5.4-34.5 8.4-23.3 33.8-37.8 40.5-61.7 2-7.2 2.1-14.7 2.2-22.2 0.2-23.2 0-46.4-0.7-69.6-0.5-18.5-1.4-37.8-10.2-54.1-10.3-19.1-30.3-31.4-51.1-37.3-22.9-6.5-56.9-12.5-78.9-0.4-27.5 15.1-53.3 47.4-70.5 72.8z" fill="#BC6265" p-id="1225"></path><path d="M569.3 146.7c47.2 21.6 91.2 35.6 141.3 48.9-19.3 0.5-43.3 7.1-61.4 0.4 11.8 6.1 23.6 12.3 35.3 18.4 4.7 2.5 9.9 5.5 11 10.7 0.7 3.7-0.8 7.4-2.4 10.8-5.4 11.8-10.7 23.6-16.1 35.4 17.1-20.3 34.8-41 58-53.9 41.6-23.1 92.2-5.8 132.3 24.3-10.5-12.3-23.3-23.5-32.9-29.7-33.6-21.7-60.7-18.9-100.5-22.9-60-6.1-114.4-28.5-170.5-50.8-39.4-15.7-85.3-33.2-127.5-37.6-25.8-2.7-52.6 1.2-77.2-7 31 10.3 110.7 7.3 210.6 53z" fill="#FFE8D4" p-id="1226"></path><path d="M553.7 242.6c3 2.5 4.9 6 6.4 9.6 7.6 19.1 1.2 40.6-5.2 60.2 6.5-9.4 13-18.7 19.4-28.1 2.1-3 4.2-6.1 7.5-7.7 7.2-3.6 16.3 2.5 18.7 10.2s0 16-2.7 23.6-6 15.4-5.2 23.5c4.6-13.6 16-23.7 26.9-33.2 2.7-2.3 5.6-4.7 9.1-5.2 7.6-1 13.2 7.6 13.8 15.2 1.1 14.5-7.8 27.5-13.7 40.8-11.5 25.6-12.4 55.8-2.4 82.1 1.7-13.3-2.7-26.6-2.1-40 2.2-43.5 55-71.7 56.6-115.2-7.5 1-13.6 8.5-21.1 7.6-4.6-0.6-8.1-4.3-11.5-7.5-7.9-7.6-17.4-13.6-27.6-17.6-7.5-3-15.4-4.9-22.5-8.6-6.2-3.2-11.7-7.7-17.4-11.9-18.7-13.7-40.2-23.7-62.7-29.2 6.9 5.8 12.2 11 17.3 17.9 4.8 7 12.1 8.1 18.4 13.5z" fill="#FFE8D4" opacity=".4" p-id="1227"></path><path d="M341.4 199.3c20.1-0.7 39.9-8.1 55.6-20.7 4-3.2 9.2-6.9 13.6-4.4 5.3 2.9 3.3 11.2-0.6 15.9-3.9 4.6-9.4 9-9.3 15.1 0.1 5.8 5.3 10 10.1 13.4 7.1 5 14.4 10.1 22.7 12.6 8.3 2.5 18.1 2 24.8-3.5 3.1-2.5 6.1-6.2 10.1-5.8 2.3 0.3 4.2 1.9 6 3.6 11.7 11 23.5 21.9 35.2 32.9 3.3 3.1 6.7 6.4 7.6 10.8 1.4 7.2-4.6 13.4-10 18.3-3.5 3.1-8.3 6.5-12.5 4.4-6.3-3.1-2.9-13.3-6.9-19.1-1.4-2-3.5-3.3-5.8-4.1-7.1-2.6-15.7-0.9-21.2 4.4-3.9 3.8-7.6 9.6-13 8.6-2.1-2.5-1.7-6.1-2.3-9.3-1.1-5.9-5.7-10.4-10.1-14.5-7.4-6.9-15-14-24.4-17.9-5-2.1-10.5-3.1-15.1-6-4.8-3-8.4-7.7-13.4-10.5-10.2-5.8-22.9-2-34.6-2.7-11-0.7-21.8-5.7-29.3-13.8 11.6-3.3 23.3-6.6 34.9-9.9M341.6 282.5c-1.4 0-2.8-0.2-4.2-0.4-1.2-0.2-2.3-0.4-3.5-0.6-5-0.8-10-1.6-14.9-3-0.9-0.3-1.9-0.5-2.8-1-1.4-0.7-2.7-1.8-4.2-1.5 0.9 0.2 1.5 1.2 2 2 1.1 1.7 2.4 3.3 4.1 4.3-13-2.4-26.1-4.8-39.1-7.3 20.6 7.7 38.8 21.8 51.5 39.7 1.8 2.5 3.5 5.2 4 8.3 1 6.1-3.1 12.6-0.6 18.1 0.7-2.8 3.8-4.5 6.7-4.4 2.9 0 5.6 1.3 8.2 2.6 5.7 2.8 12.3 7.1 11.7 13.4-0.2 2.5-1.6 4.7-2.9 6.9-4.4 7.6-7.3 16.1-8.5 24.8-7.2-8-14.5-16.1-19.1-25.8-4.1-8.8-5.8-18.7-10.5-27.2s-13.9-15.8-23.4-13.8c8 3.5 7.9 14.6 8.5 23.4 1.1 16.6 9.8 32.6 23.2 42.5 2.4 1.8 5 3.4 6.6 5.8 2.8 4.2 2.3 9.8 1.2 14.7-1.4 6.8-3.5 13.5-6.1 19.9-3.8 9.1-8.8 17.6-11.6 27s-3.2 20.2 2.1 28.5c1.5-9.1 14.4-10 21.4-16 6.5-5.6 7.4-15.1 8.9-23.5 2.6-14.5 8.4-28.1 14.1-41.6 6.2-14.7 12.4-29.4 18.7-44 4.8-1.2 8.3 4.3 12.5 7 4.8 3.1 11.2 2.3 16.2-0.4 5-2.7 8.8-7 12.6-11.3-1.3-4.1-5.6-6.4-9.5-8.3-7.9-3.7-15.7-7.5-23.6-11.2-4.4-2.1-8.9-4.2-13.8-4.3-3.2-0.1-6.5 0.8-9.5-0.2-2.3-0.7-4.1-2.4-5.8-4-15.4-14.2-30.8-28.4-46.3-42.6 6.4 5.2 13.7 10.6 22 10.1 4.1-0.3 7.9-2.1 11.8-3.5 6.9-2.6 14.2-4.3 21.6-4.9-3.3-0.9-6.8-0.3-10.1 0.3-5.3 1-10.7 1.9-16 1.3-1.2-0.2-2.2 0.2-3.6 0.2z" fill="#CD3910" p-id="1228"></path><path d="M770.8 361.5c-11-7.2-23.5-12.1-36.4-14.2-4.1-0.7-8.5-1.2-11.7-3.9-3.9-3.4-4.6-9.3-3.1-14.3 1.5-4.9 4.8-9.1 8.1-13.1 5.7-6.9 11.6-13.9 19.3-18.3-12.2 2.3-20.8 12.8-30.6 20.4-2.6 2-5.5 3.9-8.7 4.3-4.4 0.5-8.7-2.1-11.5-5.5-2.8-3.4-4.4-7.7-5.9-11.9l-4.5-12.3c1.7 11.9 2.3 24.4 12.2 31.4 2.7 1.9 5.9 3.4 7.3 6.3 1.9 4-0.5 8.6-2.6 12.6-6.1 11.7-9.6 24.8-10 38-1.9-4.3 0.6-9.1 3-13.1 3.5-5.8 7.8-12.1 14.5-13.6 6.6-1.4 13 2.4 19.3 4.8 12.4 4.8 27.8 3.1 41.3 2.4zM802.7 303.6c1.9-5.9 2.4-12.3 4.8-18.1 2.4-5.9 6.7-10.8 11.1-15.4 3.9-4.1 7.8-8.2 12.4-11.5 7.9-5.6 17.2-8.7 26.4-11.7-6.7 2.8-13.5 6.2-18.1 11.9-3.2 4-5.1 8.8-6.9 13.6-4.9 13.1-9.6 26.7-9.6 40.7-0.1 14.6 4.9 28.8 12.2 41.4-16.2-19.8-20.5-48.7-10.7-72.4-7.4 6.6-12.2 15.6-15.9 24.7-1.8 4.5-3.6 9.4-7.4 12.5-4.1 3.4-11.7 5.4-17 4.6 2.3-2.3 6.1-3.5 8.8-5.5 4.9-3.6 8-9.2 9.9-14.8z" fill="#A02A0E" p-id="1229"></path><path d="M826.2 442.3c-6 3.8-8.9 11.8-6.8 18.6 14.1-0.2 28.2-2.9 41.3-8.1 1.5-0.6 3.8-0.8 4.2 0.7 0.2 0.7-0.2 1.3-0.5 1.9-8.4 16.5-14.6 34.1-18.2 52.2-0.2 1.3-0.5 2.6 0 3.8 0.9 2.2 3.6 2.8 5.9 3.2 8.6 1.3 17.2 2.6 25.7 3.9-0.2 6.7-5.3 12.1-8.1 18.2-4.4 9.6-3.1 21.1-7.7 30.6-3.7 7.4-10.6 12.6-17.4 17.3-1.1 0.8-2.3 1.6-3.7 1.7-2.1 0.2-4.1-1.1-5.7-2.6-3.1-2.8-5.7-6.3-7.5-10.1-1.5-3.2-3.1-7-6.4-7.9-1.4-0.4-2.9-0.2-4.3 0.1-5.5 1.2-10.7 3.7-15 7.4-1.8 1.5-4.3 3.4-6.3 2.1-0.6-0.4-1-0.9-1.3-1.5-3.5-5.2-4.8-11.3-7.7-16.9-2.7-5.1-4.9-10.5-6.5-16 4.2-1.5 8.8 0.8 12.8 2.9s8.9 3.9 12.8 1.6c0.9-2.2-1.9-3.9-4.2-4.5l-8.4-2.4c-2.9-0.8-5.9-1.7-8.9-1.5-3 0.2-6.2 1.5-7.7 4.2-2.4-4.6-4.8-9.2-7.2-13.9-0.9-1.8-1.9-3.6-2.4-5.6-0.4-1.8-0.5-3.7-0.4-5.6 0.1-2.9 0.4-6 1.8-8.6 1.3-2.6 3.8-4.8 6.8-5.1 2.9-0.3 6.9 0.6 7.8-2.1 0.2-0.7 0.1-1.5 0-2.2-0.4-2.6-0.7-5.1-1.1-7.7-0.4-3.2-1.2-6.8-4.1-8.3-1.6-0.8-3.6-0.7-5.4-0.7-10.7-0.1-20.2-6.6-29-12.8-4-2.9-8.1-5.8-11.2-9.6-3.1-3.8-5.3-8.7-4.7-13.6 0.3-2.6 1.3-5.2 1.8-7.7 1.2-5.7 0.3-11.6-0.7-17.3-0.3-1.9-0.7-3.9-2.3-5-0.8-0.6-1.9-0.8-2.6-1.6-1-1.1-0.8-2.8-0.5-4.2 2.3-9.7 8.6-18.5 17.1-23.8 5.6-3.5 12.8-3.9 19.3-5.2 1.9-0.4 3.8-0.8 5.5-1.7 1.7-0.9 3.2-2.2 4.5-3.6 5.3-5.1 10-10.8 14.2-16.8 0.7-0.9 1.3-2 1.2-3.1-0.1-1.1-1.4-2.2-2.4-1.6-0.4-0.9 0.6-1.8 1.5-2.3 14-7.1 32.3-4.3 43.5 6.6 3.5 3.4 6.5 8.1 5.4 12.9-0.5 2.1-1.6 3.9-2.4 5.9-2.5 6.6-0.2 14.1 2.7 20.6 3 6.5 6.7 12.9 7.1 20 0.6 9.5-6.2 19.6-14.2 24.8z" fill="#CC7177" p-id="1230"></path><path d="M738.3 405.3c-3.5 25.5 4.4 52.3 21.1 71.9-10.9-3.8-21-10.1-29.1-18.4-2.6-2.7-5.1-5.6-6.4-9.2-4-11.1 4.8-24.8-1.6-34.7-0.9-1.3-2-2.6-2.4-4.1-0.5-2.1 0.5-4.2 1.5-6.1 2.9-5.1 6.5-9.8 10.7-14 2.3-2.3 4.8-4.4 7.8-5.5 1.4-0.5 6.6-1.6 7.1 0.5 0.3 1-3.6 4.5-4.3 5.5-2.5 4.3-3.7 9.3-4.4 14.1z" fill="#A02A0E" p-id="1231"></path><path d="M792 361.3c-13.1 9.1-27.9 16-39.2 27.2 19.4-5.6 38.8-11.1 58.2-16.4 1.1-0.3-7-10.9-7.9-11.6-5.7-5-6.1-2.7-11.1 0.8z" fill="#CD3910" p-id="1232"></path><path d="M830 254.3c21.4 31.6 31.1 69.6 37.6 107.2 1.3 7.4 2.5 14.8 2.5 22.3 0.1 8.9-1.4 17.8-3 26.6-4.4 25.4-14.5 39.6-33.9 56.6-11.8 10.2-41.7 25.8-53.5 23.5 22.1 3.7 83.9 22.2 105.6 27.7 0.7-12.7 1.5-25.7 6.9-37.2 2.2-4.8 5.2-9.1 7.8-13.7 15.4-27 18.1-59.9 13.1-90.5s-17.1-59.7-30-88c-9.5-21-19.9-42.4-37.1-57.8-8.5-7.6-18.9-13.4-30.1-16.1-5.9-1.5-29.6-5.2-30.2 4 19 7.4 32.8 18.4 44.3 35.4z" fill="#4C0D0C" opacity=".6" p-id="1233"></path><path d="M769.5 336.5c-1.8 1.2-3.6 2.4-4.7 4.1-1.7 2.6-1.6 5.9-1.1 9 0.7 4.4 2 8.7 3.9 12.8 1.7-3.9 3.6-8 7.1-10.5 1.8-1.4 4-2.2 6-3.2 4.6-2.3 8.7-5.7 12-9.8 1.7-2.1 3.3-4.5 5.8-5.4 3.8-1.4 7.8 1.4 11 3.9-3-2.4-5.4-8-7.6-11.2-1-1.5-2.2-4.1-3.6-5.2-2.5-2.1-1.4-1.7-4.6-0.1-8.5 4.1-16.4 10.5-24.2 15.6z" fill="#CD3910" p-id="1234"></path><path d="M782.4 387.1c-4.2 2.2-8.4 4.9-11 8.9-3 4.6-3.5 10.5-2.6 15.9 0.9 5.4 3.1 10.5 5.3 15.5 1.1 2.5 2.2 5 3.2 7.5 0.8 1.8 1.6 3.6 3.2 4.7 2.1 1.4 5 1.1 7.3 0.1s4.3-2.7 6.5-4c4.3-2.5 9.6-3.5 12.9-7.2 2.7-3 3.6-7.1 4.2-11.1 1.3-9.6 1-19.5-1.1-29-0.2-0.7-0.3-1.5-0.8-2s-1.2-0.8-1.8-1.1c-4.4-1.8-7.5-3.5-12.3-2.8-4.5 0.7-8.9 2.5-13 4.6z" fill="#4C0D0C" p-id="1235"></path><path d="M786.5 410.1c-1 3.6-3 6.8-5 10-0.7 1.2-1.5 2.5-2.6 3.4-1.1 0.9-2.5 1.5-3.9 1.3-0.3-0.1-0.6-0.2-0.8-0.4l-0.3-0.6c-1.4-3.7-2.6-7.5-3.8-11.3-0.4-1.2-0.8-2.5-1-3.8-0.8-4.7 0.7-9.7 3.9-13.2 2.8-3 10.4-7.4 12.9-3.4 2.6 4.2 1.8 13.8 0.6 18z" fill="#BC6265" p-id="1236"></path><path d="M759.1 504.6c0.4 0.6 0.9 1.3 1.6 1.6 0.6 0.2 1.3 0 2-0.2 9.6-3.1 16.8-12.5 17.2-22.6-4.9-2.2-10.6-1.5-15.8-2.6-15-3.4-21.5-20-35.3-25.2 6.2 6 11 11.4 15.2 19.2 5.1 9.8 9.2 20.3 15.1 29.8zM806.5 542.8c0.2 1.9-1.8 3.4-3.7 3.4-2.9-0.1-12.3-6.2-9.8-8.9 2.7-3 13.1 2.2 13.5 5.5zM836.1 362.1c-1.5-4.9-6-8.1-9.8-11.4-10.6-9-18.4-21.1-22.2-34.5-4.6 5.7-11 9.9-18.1 11.8 4.7 0.8 8.3 1.2 12.5-1.3 0.5-0.3 2.3-2.1 2.9-2 0.5 0.1 3.5 5.3 3.9 5.8 6.7 8.9 8.9 14.4 17.3 21.7 1.7 1.5 3.5 2.9 5.4 4.2 3.2 1.9 4.9 3.6 8.1 5.7z" fill="#A02A0E" p-id="1237"></path><path d="M740 394.3c-6.6 9-11 19.7-12.5 30.8-0.4 2.6-0.6 5.3-0.1 7.9 0.3 1.9 1.1 3.8 1.8 5.7 2.5 6.4 4.9 12.8 8.8 18.4 1.5 2.2 3.2 4.3 4.6 6.6 1.2 2 2 4.2 3.4 6 3.4 4.6 9.2 6.7 14.7 8.4-6.6-4-11.5-10.3-14.8-17.3-3.3-6.9-5.1-14.5-6.6-22-0.6-2.9-1.1-5.8-1.6-8.6-0.7-4.1-1.3-8.3-1-12.4 0.3-4.2 1.4-8.3 2.5-12.4 1.5-5.3 3.7-10.3 5.3-15.5-1.9 0.9-3.3 2.8-4.5 4.4z" fill="#823C41" p-id="1238"></path><path d="M837.7 412.6c0.8 13.7-2.2 27.6-8.4 39.8-1.1 2.1-2.3 4.2-3.7 6.2-4.9 6.9-12.5 12.2-15 20.3 2.2-11.8 8-23.8 4.8-35.4-4 8.3-9 16.1-14.9 23.1 10.9-16.1 15.7-35.6 17.9-54.9 4.7 5.9 8.2 13 8.5 20.6 5.8-5.1 10.7-11.9 10.8-19.7z" fill="#A02A0E" p-id="1239"></path><path d="M737.5 575.7c9.6 10.3 46.2 11.1 47.7 13s34-36.1 39.7-25.8c4.1 7.4 9.1 15.7 17.4 17.4 1.3 0.3 2.7 0.3 3.9-0.1 1.5-0.6 2.5-1.8 3.6-3 4.8-5.7 9.7-11.8 11-19.1 0.6-3.6 0.3-7.2 0.5-10.8 0.6-8.3 4.2-16.4 10.1-22.3 1-1 2.2-2.6 1.3-3.7-0.3-0.4-0.9-0.6-1.4-0.8-27.9-8.5-56.9-13.5-83.9-24.7-2.7-1.1-138.4-45.6-141.2-44.8-4.9 1.4 6.2 24.2 8.8 28.2 11.3 17.8 43.3 47 45.1 51.9 1.5 4.8 34 41 37.4 44.6z" fill="#FFE8D4" opacity=".3" p-id="1240"></path><path d="M210.5 371.3c-1.3 3.7-2.6 7.6-5.1 10.7-4.7 5.8-14.7 18.6-13.9 26 0.4 3.8 1.4 3.8 3.6 6.9 1.2 1.7 0.6 2.8-0.5 5.8-0.9 2.5-3.4 9.4-11 9.3 3.4 1.8 9.2-2.7 11-3.9 1-0.6 2.2-3.9 4-11 0.9-3.5-8.3-3.9-2.5-15.6 1.5-3.9 15.1-24.2 19.1-38.3 4.7-16.2 13.2-30.9 21.2-45.7 11.7-21.8 23.4-44.3 32.9-67.2-16.8 13.1-23.9 35.4-32.3 54.4-9.8 22.5-18.7 45.4-26.5 68.6zM314.2 353.7c3.3 5.4 9.3 8.4 14.6 11.7 8 5.1 15 11.6 20.7 19.2 1.2-0.5 0.6-2.4-0.2-3.5-4.8-6.3-9.8-12.8-16.5-17.1-3.4-2.2-7.2-3.9-10.1-6.8-7.9-7.7-5.8-19.8-10.8-28.7-3.5 5.6-1.2 19.4 2.3 25.2zM267.9 286.2c-2.9 6.9-7.6 12.9-12.2 18.8-0.6 0.7-1.2 1.7-0.8 2.5 0.5 1.3 2.5 1.1 3.7 0.3 3.2-1.9 5.2-5.3 7.7-8 2.5-2.8 6-5.3 9.7-4.6 3.8 0.7 6.2 4.4 7.2 8.1 1 3.7 1 7.6 2.2 11.3 3.4-4.9 3.7-11.8 0.8-17s-9-8.5-15-8.1c2.5-4.3 5-8.8 5-13.8 0-4.5-2.5-8.7-6.7-9.8 1.3 6.9 1.2 13.6-1.6 20.3zM341.3 408.7c2.6-0.1 6.1 0.3 6.7 2.9-12.7 9.8-23.8 21.7-32.7 35 3.4-5 7.4-9.5 11.9-13.6 4.9-4.4 10.3-8.2 14.9-12.9 4.6-4.7 8.3-10.6 8.8-17.1 0 0.3-9.8-0.1-10.5-0.1 2.3-2.9 4.4-5.9 5.9-9.2-6.5 0.3-17.4 15.3-5 15zM318.5 282.1c5.2 4.9 8.1 11.7 11.7 17.8 3.7 6.1 8.9 12.1 16 13.2 0.5-5.2-2.7-10-6.4-13.6-3.7-3.6-8.2-6.6-11.4-10.7-2.2-2.8-3.7-6.1-6.1-8.6-2.4-2.4-5.1-3.5-8.2-2.6 1 2 2.6 2.9 4.4 4.5zM446.2 338.9c0.1 0.9 0.2 1.8 0.9 2.4 0.8 0.8 2.2 0.7 3.3 0.7 10 0.3 13 15.7 22.7 18.5-3-4.7-6-9.5-7.1-14.9-0.8-3.7-1.1-8.3-4.4-10-2.4-1.3-5.4-0.4-8.1-0.5-2.5-0.1-5.4-1.3-7.5-2.2-0.4 2-0.1 3.9 0.2 6zM623.2 386.5c0.7 7.3 1.4 14.5 2.1 21.8-1.6-7.2 0.1-14.7 1.9-21.8 0.7-2.9 1.4-5.7 2.1-8.6 3.1-12.8 8.3-22.5 14.4-34 3.9-7.4 8.3-14.4-2-11.4-17.6 5.1-19.9 40.1-18.5 54zM457.2 270c4.5 1.3 9.2-1 13.5-3 4.3-1.9 9.7-3.3 13.4-0.5 2.3 1.7 3.3 4.6 4.9 6.9 3.1 4.5 8.8 7.2 14.3 6.7 1.4-0.1 3.2-0.2 3.6 1.2 0.5 1.6-1.7 2.5-3.3 2.7-4.3 0.6-8.6 1.1-12.9 1.7-1.1 0.1-2.3 0.3-3.2-0.3-0.9-0.6-1.4-1.7-2.1-2.5-3.1-3.3-8.6 0.6-13.1-0.2-3.2-0.6-5.5-3.7-8.6-4.7-3.3-1.1-7 0.3-10.4-0.6-3.7-1.1-6-4.7-9.2-6.9-6.6-4.7-16-2.8-23.3-6.4-14.3-7.2 9.2-8.9 6.7-15.3 17-5.6 17.7 17.7 29.7 21.2zM378 235.6c7.5-3 15.2 3.3 22.9 5.4 3.2 0.9 6.5 1.1 9.6 2.3 3.1 1.2 5.9 4 5.8 7.3-1.5 2.5-5.3 2.6-7.9 1.2-2.6-1.4-4.4-3.9-6.7-5.8-2.1-1.8-4.5-3.2-6.9-4.5-4.4-2.5-11.8-3-16.8-5.9zM350 196.5c-2.6 2.4-5.5 5.9-3.8 9 0.9 1.5 2.6 2.3 4.2 2.9 6.8 2.7 13.7 5.5 21 5.8-5.8 0.9-10.7-4.1-14.5-8.6-1.5-1.8-3.1-4.2-2-6.2 1.3-2.5 4.9-2.1 7.6-2.7 2.5-0.6 4.6-2.3 6.6-4 5.4-4.7 10.9-9.4 16.3-14.1-4.6 1.2-8.6 3.9-12.7 6.2-4.2 2.3-8.4 4.1-12.7 5.6 0 0-6.3 2.8-10 6.1zM411.3 165.8c2.9 1.7 5.3 4.1 7.6 6.6-3.9-1.5-8-2.3-12.1-2.5-2-0.1-7.4 1-8.9-0.9-4-5.1 10.5-4.8 13.4-3.2zM535.6 237.2c2.2 1.3 4.6 2.4 6.3 4.3 2.5 3.1 2.5 7.7 0.9 11.3-1.6 3.6-4.5 6.6-7.3 9.4-0.9-3.6-4.1-6.5-7.7-7-0.8-0.1-1.6-0.1-2.3-0.4-1.7-0.6-2.6-2.5-2.9-4.3-0.3-1.8-0.3-3.6-0.9-5.3-0.7-2-2.1-3.6-3.6-5.2-3.7-4.1-7.8-8.3-13.2-9.4-2.1-0.4-4.6-0.5-5.6-2.4-0.5-0.9-0.5-2-0.5-3.1 0.1-2.6 0.2-5.3 0.3-7.9 0-0.6 0-1.2 0.4-1.7 0.5-0.7 1.5-0.9 2.4-1 7.7-0.6 14.8-1.7 18.8 5.3 4 7.1 7.5 13.1 14.9 17.4zM579.1 188.7c-6.2 1.1-12.8 0.8-18.8 2.8-5.2 1.8-9.8 5.5-12.8 10.2 2.9 4.1 8.5 5.3 13.3 6.9 7.8 2.6 14.9 7.4 20.2 13.8 0.2-8.2-3.4-16.5-9.6-21.9 4.2-2.2 9.4-0.9 13.8-2.7 3.8-1.6 6.4-5.2 8.7-8.7 2.5-3.7 5.2-7.4 7.4-11.2-4.6 0.5-5.8 3-9.1 5.5-3.8 2.9-8.4 4.4-13.1 5.3zM614.6 243.7c2.6 1 5.2 2.1 7.8 3.1 1.3 0.5 2.8 1.1 4.1 0.5 0.7-0.3 1.3-0.8 1.8-1.3 5.7-5.4 12.1-10.1 19.1-13.8-7.5-0.2-14.2 4.4-20.6 8.5-0.8 0.5-1.6 1-2.5 1.3-1.9 0.6-4 0.2-6-0.3-5.1-1.1-10.3-2.7-15.5-3.3 3.1 2.6 8.1 4 11.8 5.3zM635.6 250.2c-1.1 1.1-2.2 2.4-2.1 3.9 0.1 1.7 1.6 2.9 2.9 4 10.4 7.7 21.4 14.7 32.8 20.7 2.9-3.7 2.3-8.9 3-13.6 1.4-8.7 7.7-15.7 13.8-22.1-9.4 2.6-16.1 10.5-23.4 17-2 1.8-4.5 3.7-7.2 3.3-2.4-0.3-4.1-2.3-5.7-4.2-1.5-1.8-3.1-3.7-4.6-5.5-0.4-0.4-0.7-0.9-0.8-1.5-0.1-0.9 0.6-1.8 1.2-2.5 5.1-5.5 10.6-10.8 15.4-16.5-7.6-0.8-20.2 12.2-25.3 17z" fill="#FFE8D4" opacity=".8" p-id="1241"></path><path d="M833.6 276.2c3.1-4.6 4.8-10.2 9-13.8 3-2.6 6.7-5 10.7-4.6 4.2 0.4 7.5 4 8.8 8 1.3 4 1 8.3 0.4 12.4 3.4-3.6 6.7-4.6 11.1-6.8 1.9 13.1-0.1 24.9-6.9 36.3 4.7-6.2 10.8-11.3 17.6-15-1.5 8.8-8 16.1-15.6 20.7s-16.3 7.1-24.9 9.4c6.2-1.3 12.3-2.6 18.5-3.9 5.5-1.2 11.1-2.4 16.2-5 5-2.6 11.5-5.7 11-12.3-0.7-8.1-3.2-15-7.2-22-4.4-7.6-14.1-28.6-24.5-28.1-5.3 0.3-12.3 4.7-16.3 8.2-6.2 5.3-9.2 18.4-7.9 16.5z" fill="#4C0D0C" opacity=".8" p-id="1242"></path><path d="M857.5 358.9c1.3 5.2 1.2 10.8-0.2 16 2.9-5.2 8.5-8.9 14.4-9.6 2.8 6.1 2.6 13.5-0.6 19.3 4.3 1.8 9.1 2.5 13.7 2.1 1.5 2-0.5 4.6-2.3 6.3-8 7.2-16.6 13.7-25.7 19.5 8.2-6.1 18-9.8 28.2-10.7 0.5 5.6-0.4 11.4-2.7 16.6 6.4-5.1 13.2-10 20.9-12.5 7.8-2.5 16.7-2.5 23.7 1.8-1.2-4.6-6.4-7-11.1-7.7-8.8-1.4-18.1 0.5-25.6 5.4 5.7-7.3 11.5-14.6 17.2-21.9l-21 2.1c-0.8 0.1-1.7 0.1-2.1-0.6-0.3-0.4-0.2-0.9-0.2-1.4 0.5-8.2 1-16.4 1.5-24.5 0.3-5.3 0.1-11.7-4.4-14.5-2.4-1.5-5.4-1.5-8.2-1.2-11.3 1.1-22 5.8-32.4 10.5 8-2.5 16.3-4.8 24.7-4.3 6.2 0.4 13.1 3 15.2 8.9 2.6 7.2-3.3 15-2.3 22.5-0.6-6.2-3.3-12.2-7.5-16.8-2.7 0.3-5.3 0.6-8 0.9-1.5-3.5 3.7-7.4 2-10.8-0.5-0.9-1.3-1.5-2.2-2-4.6-2.6-14.4-4.8-17.2 0.8 5.7-1.2 10.7-0.3 12.2 5.8z" fill="#A02A0E" p-id="1243"></path><path d="M861.5 461.8c-2.2 1.6-4.4 3.2-6 5.4-1.2 1.7-2 3.6-2.8 5.5-4.9 11.9-9.8 23.9-14.7 35.8 10.9-12.8 26.5-21.4 43.1-23.8-5.9-2.4-12.7-2.8-18.9-0.9 5.2-7.1 6.7-16.7 13.1-22.8 2.6-2.4 5.8-4.1 9-5.6 8.2-3.8 16.9-6.8 25.7-8.8-10.1-3.6-22.2-0.6-29.5 7.2 0.8-2.3 1.7-4.5 2-6.8-7.4 3.3-14.5 10-21 14.8z" fill="#4C0D0C" opacity=".8" p-id="1244"></path><path d="M801.1 358c4.1 3.3 6.1 8.4 8 13.3 0.7 1.8 1.4 3.7 2.2 5.5 3.7-8.5 11.3-15.1 20.1-17.6-2.8-2.2-6.7-2.3-10.3-1.9s-7.1 1.4-10.6 1.1-7.3-2.3-8.3-5.7c5.1-1 10.1-2.1 15.2-3.1-6.8-4.2-15.4-4.8-23.2-3.1-5.1 1.1-11.8 3-15.6 6.4 2.8 2.5 7.4 0.6 10.8 0.9 4.1 0.4 8.3 1.5 11.7 4.2zM765.2 414.3c0.7 5.8 3.8 11 7.8 15.3 4 4.3 8.8 7.6 13.5 11-6.3-7.5-10.9-16.6-13.2-26.2-1.2-5-1.8-10.3-0.8-15.4s3.8-9.9 8.2-12.7c-11.3 7.2-17.2 14.5-15.5 28z" fill="#FFE8D4" opacity=".8" p-id="1245"></path><path d="M885 435.4c-12.8 6.8-25.6 13.7-38.4 20.5-7.5 4-15.3 8.1-23.7 9.4-8.1 1.2-16.3-0.3-24.4 0.2-8 0.5-15.7 2.8-23.6 4-7.9 1.2-16.4 1.1-23.3-3 5.9 4.2 13 6.4 19.4 9.8 6.4 3.5 12.5 8.9 13.5 16.1 0.3 1.9 0.3 4.1 1.8 5.3 0.6 0.5 1.4 0.8 2.2 1 9.9 3 20.1 5.1 30.4 6.4 6.5 0.8 19.2 4.2 23.8-1.8 4.2-5.5 4.9-16.1 7.7-22.6 3.5-8.2 8-16 13.4-23.2 5.9-8.3 13.1-15.7 21.2-22.1z" fill="#FFE8D4" opacity=".3" p-id="1246"></path><path d="M754.8 368.9c-0.7 0.9-1.4 1.8-2.1 2.6-1.7 2-3.6 3.8-5.5 5.6-1.3 1.2-2.5 2.3-3.8 3.5 3.9 0.2 7.8 0.2 11.7-0.1 1.9-0.1 3.9-0.3 5.7-1 1.9-0.7 3.5-2 5-3.3 1.7-1.4 3.4-2.8 4.8-4.5 3.5-4 5.5-9.2 9.4-12.9 1.1-1 2.3-2 2.8-3.4 0.1-0.2 0.1-0.4 0-0.6-0.4-1.1-4.8-0.8-5.8-0.6-1.9 0.3-3.9 1.4-5.6 2.2-4.1 1.9-8 4.3-11.4 7.2-1.8 1.6-3.6 3.3-5.2 5.3zM748.4 297c16.7-1.6 33.7 9.8 38.5 25.9-2.2-7.7-5.7-15.3-11.8-20.6-3.7-3.2-8.3-5.4-11.6-8.9-3.2-3.4-5.1-7.8-7-12.2-5.6-13-10-28.9-17.7-40.7-2.2 3.6 7.4 21.8 8.7 26.9 2.4 9.7 3.3 19.8 0.9 29.6z" fill="#FFE8D4" opacity=".4" p-id="1247"></path><path d="M270.1 338.2c16.6-4.4 33.7 3.2 49.2 10.7 92.5 45 170.9 77.2 269.9 105 13.2 3.7 34.8 8.5 47.8 4.2 21.4-7.1 37.2-16.5 53.8-31.7 2.3-2.1 5.6-4.2 8.4-2.7 1.2 0.6 2 1.9 2.8 3 29 45.4 50.4 95.7 62.9 148.2 0.8 3.3 1.4 7.2-0.9 9.7-1.8 1.9-4.7 2.2-7.3 2.4-79 5.1-159.2-10.1-230.9-43.5-17-7.9-33.6-16.9-51.2-23.1-36-12.6-74.9-13.4-113.1-13.9-35.6-0.4-72.3-0.9-104.7-15.5-26.7-12-63.1-44.4-52.1-76.9 7.9-23.6 40.6-69.3 65.4-75.9z" fill="#4C0D0C" opacity=".6" p-id="1248"></path><path d="M183.9 443.6c-4 1.9-8.3 3.6-11.7 6.5-4.4 3.7-7 9.1-9.6 14.3-7.7 15.9-15.4 31.9-23.1 47.8-11.8 24.3-23.6 48.9-29.7 75.2-7.7 33.4-5.6 68.2-3.5 102.5 1.2 19.2 2.4 38.3 3.5 57.5 0.8 13.6 1.7 27.2 3.9 40.7 5.9 34.9 21.3 67.8 41.2 97.1 9.6 14.1 20.8 28 36.2 35.4 27.3 13 60.1 2.4 89.7 8.6 13.6 2.9 26.2 9.2 39.8 12.1 29.7 6.2 60.7-4.8 90.7-0.5 20.9 2.9 40.2 13.1 61 16.2 22.7 3.4 45.8-1.7 68.5-5.4 34.8-5.6 70.2-7.7 105.5-6.4 54.1 2.1 111.9 11.7 159.6-14 8.2-4.4 16.2-10 25.5-11.3 3.8-0.5 8-0.4 11-2.8 4.2-3.3 4.2-9.5 3.7-14.8-2.7-33.1-5.5-66.8-18.5-97.3-7.4-17.3-18.3-35.2-14.1-53.5 2.3-10.2 8.3-23.1-0.1-29.2-2.5-1.8-5.7-2.4-7.9-4.6-2.9-2.9-2.8-7.5-2.7-11.6 0.9-29.2-4.9-58.3-14.3-85.9-7.7-22.6-17.7-44.3-27.6-66-8.1-17.6-16.2-35.2-24.3-52.9-8.4-18.3-18.7-38.3-37.8-44.7-29.6-9.9-59.7 21.6-89.4 12.1-9.5-3-41.6 3.8-47.2 6.3-13.6 5.8-144.4-17.8-181.8-38.7-18.3-10.2-37.7-18.5-57.3-26-24.9-9.4-59.1-15.3-85.3-7.6-21.7 6.5-32.8 30.9-53.9 40.9z" fill="#AE4532" p-id="1249"></path><path d="M199.7 448c68.5 1.1 127.2 48 193.3 66.1 40.8 11.2 83.8 11.2 126.2 11.1 58.7-0.1 119.1-0.5 173.7-22.1 2.3-0.9 4.9-1.9 7.3-1.1 3.9 1.4 4.7 6.5 4.9 10.7 3.3 89.3 25.3 177.9 64.3 258.4 17.8 36.6 28.5 77 46.4 113.5 6.5 13.3 13.5 26.5 23 37.8-96.1 44.3-207.5 28.9-312.7 17.6-103.8-11.2-207.7-22.4-311.5-33.6-13-1.4-27.1-3.4-36.1-12.9-7.4-7.9-9.5-19.1-14.4-28.8-8.7-17-25.6-28.3-36-44.3-23.6-36.3-7.6-84.5-13.7-127.5-2.2-15.1-7.1-30.9-1.4-45.1 5.1-12.6 17.9-21.5 20.7-34.8 2.5-12-3.9-24.3-2.8-36.5 0.6-6.7 3.5-13 6.3-19.1 17.7-37.9 44-71.5 62.5-109.4z" fill="#CA5448" p-id="1250"></path><path d="M229.5 425.9c22.7 3.9 45.5 7.7 68.2 11.6 35.7 6.1 73.4 13.1 100.2 37.5-41.2-3.8-82.3-7.6-123.5-11.4-20.9-1.9-42.3-4-61.1-13.3-3.8-1.9-7.7-4.1-11.9-3.6-3.9 0.4-7.1 3.1-10 5.8-24 22.6-38.6 53.3-49.8 84.2-8 22.1-14.3 47.5-3.5 68.4 1.7 3.3 3.9 7 2.5 10.4-0.6 1.6-1.9 2.8-3.1 4.1-20.6 21.2-19.2 54.8-16.4 84.2 0.3 2.6 0.6 5.5 2.5 7.4 1.7 1.7 4.3 2 6.7 2.3 48 5.5 96 11 144 16.6-46.4 23.3-101.9 12.6-152.6 1.3-5.6 25.5-5.7 52.2-0.1 77.7 54.3 11.6 108.6 23.3 163 34.9-18.5 3.3-36 2.3-54.6-0.7-32.1-5.3-77.9-12.7-110-18 36 13.7 84.4 27.7 123.6 39.2 29.7 8.7 65.5 12.6 96.1 17.1-16.1-9.4-31.2-20.5-45.1-32.9 52.8 8.9 103.7 26.7 156 38.6 40.6 9.2 82.9 14.9 123.6 6.2-52.1-14.4-95.5-27.4-146.7-44.7 67.3-9.5 125.5-26.8 191.9-41.3 41.3-9 67.1-11.2 105.2-29.4 5.5-2.6 10-4.9 13.1-10.1 2.5-4.1 8-16.9 8.5-21.7 2.7-27 5.4-54.5 0.7-81.2-4.6-26.2-16.1-50.6-23.9-75.9-12-38.6-24.6-76.2-10.4-119.8-48.3 15.1-86.2 30.3-136.5 24.8-21.3-2.3-42-8.4-62.5-14.5-52.7-15.7-105.1-32.2-157.2-49.5-24.7-8.2-50.4-20.4-75.8-25.7-9.7-2.1-13.7-2.3-23.1 1.3-5 2-25.3 20.6-28 20.1z" fill="#A02A0E" p-id="1251"></path><path d="M217.5 425.9c22.7 3.9 45.5 7.7 68.2 11.6 35.7 6.1 73.4 13.1 100.2 37.5-41.2-3.8-82.3-7.6-123.5-11.4-20.9-1.9-42.3-4-61.1-13.3-3.8-1.9-7.7-4.1-11.9-3.6-3.9 0.4-7.1 3.1-10 5.8-24 22.6-38.6 53.3-49.8 84.2-8 22.1-14.3 47.5-3.5 68.4 1.7 3.3 3.9 7 2.5 10.4-0.6 1.6-1.9 2.8-3.1 4.1-20.6 21.2-19.2 54.8-16.4 84.2 0.3 2.6 0.6 5.5 2.5 7.4 1.7 1.7 4.3 2 6.7 2.3 48 5.5 96 11 144 16.6-46.4 23.3-101.9 12.6-152.6 1.3-5.6 25.5-5.7 52.2-0.1 77.7 54.3 11.6 108.6 23.3 163 34.9-18.5 3.3-37.6 0.2-56.1-2.8-32.1-5.3-64.3-10.6-96.4-15.9 39.2 11.5 78.3 22.9 117.5 34.4 29.7 8.7 59.5 17.4 90.2 21.9-16.1-9.4-31.2-20.5-45.1-32.9 52.8 8.9 103.7 26.7 156 38.6 40.6 9.2 82.9 14.9 123.6 6.2-52.1-14.4-103.8-30.2-155-47.5 67.3-9.5 133.8-24 200.2-38.5 41.3-9 83-18.2 121.1-36.4 5.5-2.6 11.2-5.7 14.3-10.9 2.5-4.1 3-9.1 3.5-13.8 2.7-27 0.2-52.9-4.5-79.7-4.6-26.2-10.9-52.1-18.7-77.5-12-38.6-15.5-79.8-10.4-119.8-48.3 15.1-98.3 30.3-148.6 24.8-21.3-2.3-42-8.4-62.5-14.5-52.7-15.7-105.1-32.2-157.2-49.5-24.7-8.2-50.4-20.4-75.8-25.7-9.7-2.1-13.7-2.3-23.1 1.3-5.1 2-25.4 20.6-28.1 20.1z" fill="#E25C38" p-id="1252"></path><path d="M245.6 572.1l-59.2-1.2c0.3 3.3 1.5 6.5 3.3 9.2-3.4-5-57.2 6.8-64.7 7.7 19.8-10.6 16.6-38.1 44.2-36.1 12 0.9 22.9 8.5 34.1 12 13.6 4.2 29.2 2.7 42.3 8.4zM243.6 622.8c6.4 5 15.3 9 22.5 5.2-9.4 4.8-80 10.5-81-2.4-0.7-8.9 17-14.9 23.2-16.1 15.7-2.8 23.8 4.2 35.3 13.3z" fill="#CD3910" p-id="1253"></path><path d="M234.3 677.2c4.8 3.3 9.3 6.9 13.9 10.4 13.5 10 28.3 18 44 23.7-14 6.9-30.7 1.7-45.4-3.7-20.2-7.3-40.4-14.7-60.7-22-14.2-5.2-36.8-21.4-10.5-25.7 19.2-3.1 43.4 6.8 58.7 17.3z" fill="#A02A0E" p-id="1254"></path><path d="M213.3 714.3c7.7 0 15.4 0.1 22.7 2.4 11 3.6 19.9 12.2 31.1 15.6-9.1 1-18.3-0.3-27.3-1.5-14.6-2-29.3-4-43.9-6-11.3-1.5-23.3-2.3-34.2-5.2 5.2-10 40.4-5.3 51.6-5.3z" fill="#CD3910" p-id="1255"></path><path d="M219.4 739.6c-10.1-2.3-20.4-5.1-30.7-4.1-7.8 0.8-15.2 3.7-22.7 5.7-21.6 5.9-44.9 5.1-66-2.5 19.3 7.6 39.4 15.4 60.1 14.6 10.8-0.4 21.4-3.1 32.2-3.2 12.7-0.1 25.1 3.3 37.5 6.3 41.2 10 83.7 15.2 126.1 15.3-41.4-28.9-88.5-21-136.5-32.1zM490.2 763.1c-36.3-5.3-73.2-14.5-109.3-7.8 19.6 2.9 39.1 5.8 58.7 8.6-25.6 5.7-51.8 8.4-78 8.2 27.5 2.6 55.2 3.8 82.8 4.9 38 1.6 76 3.2 114 4.9 48.2 2.1 98.6 3.7 142.4-16.6-70.8 0.9-139.5 8.6-210.6-2.2zM700.5 600.3c0.1 2 0.2 4 0.9 5.8 0.8 2.1 2.1 3.8 3.5 5.6 6.7 8.6 13.3 17.1 20 25.7-0.1-7.8-0.2-15.6-0.4-23.4-3.8 1.3-7.6-1.8-10.2-4.9-5.6-6.7-9.5-14.4-12.8-22.4-1.2 3.9-1.2 9-1 13.6zM704.7 731.1c5.8 0.1 11.6 0.1 17.4 0.2-1.5 12-9.3 23.1-20.2 28.5 8.5-3.8 17-7.7 24-13.8 7-6.1 12.2-14.8 12-24.1 0-0.8-0.1-1.7-0.7-2.3-0.7-0.7-1.8-0.7-2.7-0.7l-11.7 0.3c-1.3 0-2.9 0-3.8-1-0.8-0.9-0.8-2.2-0.7-3.4 1-14.1 11.1-26.2 13.4-40.2 1.9-11.3-1.8-26.5-11.6-32.6-4.6 29.6-9.4 59.5-15.4 89.1z" fill="#A02A0E" p-id="1256"></path><path d="M169.4 914.3c24.3 16 54.9 21.2 83.6 16.4-33.7 4.4-69.2-15.7-82.7-46.9 24.2-5.3 45 16 66 29.3 23.8 15.1 52.6 20.6 80.8 20.6 28.2-0.1 56-5.4 83.7-10.7-27.5-3.1-52-17.8-77.4-28.8-47.3-20.5-98.5-28.2-148.2-40.5-19-4.7-54.5-24.8-45.4 8.3 5.8 21.2 21.3 40.3 39.6 52.3z" fill="#E25C38" p-id="1257"></path><path d="M727.4 879c-18.8 7.5-40.2 12.8-59.2 5.8-7.5-2.8-14.3-7.4-22.2-8.9-9.5-1.8-19.2 1.1-28.5 3.6-23.3 6.4-47.1 10.9-71.1 13.4-17.3 1.8-36.8 1.9-49.4-10.1 34.3 22.9 70.2 46.4 111.1 52.2 32.7 4.6 65.8-2.6 98-9.8 28.2-6.3 56.4-12.6 84.7-18.8 14.3-3.2 29.7-8.2 32.9-24.5 2.4-12-3.6-25.8-15-30.7-25.1-10.7-59.6 19.2-81.3 27.8z" fill="#FD9F7F" p-id="1258"></path><path d="M567.3 620.5c-7.3-3.4-15.9-1.4-23.1 2.1-7.2 3.5-13.7 8.4-21.2 11.2-10.8 4-22.7 3.1-34.2 2.1 15.9 1.2 31.8 2.5 47.7 3.7 2.3 0.2 4.7 0.4 6.8 1.4 3.1 1.5 5.1 4.6 7 7.5 16 25 32.5 52 31.3 81.7 9.7-35.5-4.6-76.3-34.3-98.1 17.8-5.1 36.6-6.7 55.1-4.6-27.7-8.2-42-38.2-63.7-57.3-15-13.1-42.8-27.4-63.2-22 9.6 9.4 25.4 14.1 36.9 21.3 21.6 13.7 32.5 38.9 54.9 51zM626.9 563.6c6.7 2.7 14.1 2 21.3 2 14.5 0 29.1 3 42.5 8.6-24.6-12.5-49.3-25-73.9-37.5-5.4-2.7-10.8-5.5-16.6-7.3-20.7-6.6-43.2-1.3-64.5-2.9 15.3 3.7 30.8 4.1 45.9 7.7 20 4.9 27.8 22.5 45.3 29.4z" fill="#CD3910" p-id="1259"></path><path d="M727.7 880.9c-18.8 7.5-40.5 11-59.5 4-7.5-2.8-14.8-4.7-22.7-6.2-9.5-1.8-18.7-1.6-28 1-23.3 6.4-47.1 10.9-71.1 13.4-17.3 1.8-36.8 1.9-49.4-10.1 25.1 27.8 85.5 14.7 126.4 20.4 32.7 4.6 42 0.2 74.2-7 28.2-6.3 41.5-16.8 69.7-23.1 14.3-3.2 37.7-3.8 39.4-7.5 1.7-3.7 1.1-7.1-6.2-16.5-12.2-2.3-51.1 22.9-72.8 31.6z" fill="#E27858" p-id="1260"></path><path d="M123.4 586.4c1.2 8.2 2.3 17-1.4 24.4-2.2 4.4-5.9 8-8.4 12.2-2.9 5-4 10.9-3.2 16.6-1.4-5.7 4.5-10.5 9.9-12.7 5.4-2.2 11.9-4 14.4-9.3-4.8-7.8-8.3-16.5-10.4-25.4M151.2 513c5.6-9.4 40.8-57 26.5-59-19.6-2.6-28.7 46.4-26.5 59zM185.3 535.4c-2.6-3.3-7-5-11.2-4.5 12.3 3.3 24 9.2 34 17.1 8.9 7 16.9 15.9 27.8 19.1-8.7-2-18.2 1.7-26.5-1.3-3.8-1.4-6.9-4-9.9-6.6-10.5-9-20.6-18.6-30.2-28.6M261.6 614.6c-17.9 4.3-38 10.4-45.7 27 5-2 10-4 14.9-6-0.7 3.5 0.3 8.9 3.8 8.2 1.1-0.2 2.3-1.1 3.2-0.4 0.9 0.7 0.2 2.2 0.1 3.4-0.4 2.8 3.1 4.9 5.9 4.4s5.1-2.4 7.6-3.9c8.2-4.9 18.3-4.5 27.9-3.9 2.1 0.1 4.4 0.3 6.2 1.5 2 1.3 3 3.5 4.1 5.6 5.9 11.3 16.2 20.3 28.1 24.7-11.2-5.6-18.8-17.6-19.2-30.1-0.2-6.9 1.4-14.6-2.5-20.3-3.7-5.4-10.9-6.9-15.8-11.2-5.4-4.6-8.1-12.6-14.8-14.9-6.9-2.4-14 2-20.9 0.5-5.5-1.2-10.5-5.8-15.5-8.2 8.7 16.6 11.2 28.7 32.6 23.6zM298.2 603.3c3.1 5.8 6.2 11.7 7.6 18.1 0.4 1.7 0.6 3.4 1 5.1 2 9.9 7.2 19.1 14.7 25.8 1.1 1 2.4 2.4 1.8 3.8-2.8-10.2-3.5-21-2-31.4 0.4-2.8 1-5.7 0.2-8.5-1.6-5.7-8.1-8.2-12.7-11.9-3.6-2.9-7-9.1-11.4-10.7-7.2-2.7-0.3 7.7 0.8 9.7zM256.2 687.8c0.8 4.3 0 8.9-2.1 12.7-0.4 0.8-1 1.6-1.9 1.9-1.1 0.4-2.2-0.1-3.3-0.6-4.6-2.2-21-6.6-17.2-12.2 2.1-2.9 24.4-2.3 24.5-1.8z" fill="#FFE8D4" p-id="1261"></path><path d="M215.4 703.1c12.3 4 25.3 5.4 37.6 9.5s24.4 11.3 29.9 23c-14.6-8.9-32.6-9.9-49.1-14.4-11.4-3.1-22.2-7.9-32.5-13.6-8.6-4.7-22.1-10.7-27.9-18.3 7.3-5.9 33.6 11.1 42 13.8z" fill="#FFE8D4" opacity=".7" p-id="1262"></path><path d="M151.1 718.1c2.4 0.7 4.9 1.5 6.8 3.1 2.6 2.2 4 5.6 6.8 7.6-6.8-1.2-13.6-2.8-20.3-4.8-4.5-1.3-9-2.8-13.6-2.3-4.7 0.5-8.7 3.4-10.3 7.8-7.7-2.3-11.8-10.7-3.2-14.4 8.5-3.8 25.2 0.5 33.8 3zM280.7 757.6c1.7 0.6 3.6 2.4 2.5 3.8-6.5 6.4-16 9.6-25 8.5-3.6-0.5-7.1-1.6-10.7-2-6.2-0.8-12.5 0.2-18.7-0.7-6.1-0.8-11.9-3.4-17.8-5.3-17.6-5.6-36.4-4.8-54.8-4 3.3-0.2 9.3-5 12.6-6.4 4.9-2 9.9-3.6 15-4.7 10.5-2.3 21.4-2.8 32.1-1.4 21.6 2.8 44.3 4.3 64.8 12.2z" fill="#FFE8D4" p-id="1263"></path><path d="M395.2 663.2c-2.1 5-4.3 10.5-2.6 15.6 1.8 5.4 7.7 9 8.5 14.7 1 6.9-6.1 13.9-3.2 20.3-0.1-7 7-12.3 13.9-12.8s13.6 2.4 19.9 5.3c-10-5.5-19.7-12.2-25.5-22-5.8-9.8-6.6-23.3 0.8-31.9 2.3-2.7 5.5-4.8 9-4.7 2.5 0.1 4.8 1.3 7.1 2.6l30.9 17.1c0.7 0.4 1.5 0.8 2 1.5 0.9 1.3 0.6 3 0.6 4.5 0.1 4.4 3.9 8.5 8.3 9 2.6 0.3 5.2-0.6 7.8-0.1 3.7 0.6 6.5 3.7 8.4 6.9 4.1 6.8 5.5 15 4.1 22.8-0.2 1.3-0.6 2.7 0 3.9 2.5 4.9 11.6-3.5 14.9 0.8-4.4 10.5-10.7 20.2-18.4 28.6 6.8 4.5 15.5-1.9 21.1-7.9 4-4.3 8-8.6 12.1-12.8 2.3-2.4 4.6-5 5.5-8.2 0.9-3.2-0.4-7.2-3.5-8.4-2.7-1-5.6 0.4-8.3 1.3-2.7 0.9-6.3 0.9-7.7-1.6-1.5-2.8 1.1-6.1 1.4-9.3 0.3-4-2.9-7.1-5.5-10.2-2.6-3-4.5-7.8-1.8-10.7 1.3-1.3 3.1-1.8 4.7-2.7 6.8-4 5.6-13.9 3.5-21.5-7.4-0.9-14.9 1-22.4 1.4-15.8 0.7-31.1-5.6-44.9-13.3-6.9-3.9-19.2-10.9-27.2-5.7-7.1 4.5-10.3 20.1-13.5 27.5zM548.6 664.8c-4.3-1.6-8.9-1.7-13.5-1.8-3.4-0.1-6.8-0.1-10.2-0.2-0.4 0-0.9 0-1.2 0.2-1.1 0.7-0.2 2.3 0.6 3.3 5.7 7 1.6 18 5.4 26.1 1.1 2.3 3.3 4.6 5.8 4.3 2.8-0.3 4.4-3.3 5.2-6 0.8-2.7 1.5-5.8 3.8-7.3 2.9-1.9 6.6-0.6 10.1-0.2 4.6 0.5 9.2-0.8 13.7-2.1-2-5.7-14-14.2-19.7-16.3zM580.6 658.4c-0.1 1.2-0.3 2.5-1 3.5-0.8 1.1-2.1 1.6-3.3 2.2-3.8 2.2-6.1 6.7-5.7 11.1 3.6-1.2 6.9-3.1 10.5-4.2 3.6-1.1 7.8-1.3 11 0.8 0.9 0.6 1.7 1.3 2.7 1.5 3.1 0.8 5.5-3.6 4.3-6.6-1.2-3-4.2-4.9-6.8-6.8-7.4-5.6-11.3-13.6-16.7-20.7 3 6.2 5.5 12.2 5 19.2z" fill="#FFE8D4" opacity=".8" p-id="1264"></path><path d="M609.8 655.7c-4.2 4.5-6.4 10.7-6 16.9 0.1 0.9 0.2 1.9 0.9 2.6 0.5 0.5 1.3 0.6 2 0.7 3.2 0.3 6.4-0.4 9.6-0.2s6.7 1.4 8.1 4.3c4.2-5.2 3.9-13 8.1-18.2 4.5-5.6 13.1-6.7 16.6-13-15.5-11.3-27.2-6-39.3 6.9zM624 704.1c3.4-0.2 7.2 0.5 9.1 3.3 2.3 3.3 0.9 7.9-1.3 11.3-2.2 3.4-5.4 6.5-9.4 7.4s-8.8-1.4-9.7-5.4c-0.9 1.6-0.4 3.7 0.4 5.4 3.4 6.9 11.1 11 18.8 11.2 7.7 0.1 15.1-3.4 20.7-8.7 5.6-5.2 9.4-12.1 12.2-19.2 0.7-1.9 1.5-3.9 2.8-5.4 2.3-2.5 6.5-4.4 5.9-7.8-9.4-2-19-3-28.6-3-5.6 0-10.8 0-16.3-1.6-4.2-1.2-8.8-4.7-13.3-2.8-3.8 1.6-6.6 6.5-5.3 10.7 2 6.6 8.3 4.8 14 4.6z" fill="#FFE8D4" p-id="1265"></path><path d="M571.4 712c5.2-0.1 9.4 4 12.2 8.3 2.8 4.3 5 9.3 9 12.5-0.4-6.6-0.8-13.3 1-19.7 0.2-0.9 0.5-1.8 0.1-2.7-0.6-1.3-2.4-1.3-3.9-1.1-4.8 0.6-9.6 1.2-14.4 1.7-1.2 0.1-2.7 0.8-2.4 1.9 0.8 0.8 1.9 1.2 2.9 1" fill="#FFE8D4" opacity=".8" p-id="1266"></path><path d="M679.6 641.6c-3.1 0-6.6 0.3-8.5 2.8-1.2 1.6-1.5 3.7-2.2 5.5-2.2 6.1-9.2 10.3-9.3 16.7 9-1.6 17-7.6 21.1-15.7 0.8 4.3 1.6 8.5 2.4 12.8-0.6-3.2 8.2-11.2 8.5-15.6 0.5-7.6-4.6-6.5-12-6.5zM696.1 719.6c1.9 1.5 3.9 3 6.2 4 3 1.3 6.5 1.5 9.7 0.8-0.2-6.1 0.3-12.3 1.6-18.3-0.5 2.1-13.8 2.8-15.8 2-4.5-1.9-6-8.2-11.2-8.9-15.5-2.4 6 17.6 9.5 20.4zM654.6 554.4c1.8 3.6 0.8 8-0.8 11.7 3.3 0.1 6.5-1.1 9-3.1 13 3.9 26.6 5.4 40.1 4.3-4.6 0.4-17.4-10.1-22-12.4-7.8-3.9-15.7-7.5-23.8-10.6-14-5.5-32.5-13.6-47.6-13.3 4.9 16.9 37.8 9.2 45.1 23.4zM662 533.3c1.7 0.6 3.5 0.9 5.3 1 0.9 0.1 1.9 0 2.8 0.4 1.1 0.4 1.9 1.3 2.9 2 4.2 3.3 9.9 3.5 14.9 5.5-5-3.3-10.1-6.5-15.2-9.7-1.2-0.8-2.5-1.6-3.7-2.3-8.1-5.1-18.1-13.8-27.4-15.9-3.2 7.1 14.7 17.2 20.4 19z" fill="#FFE8D4" p-id="1267"></path><path d="M279.6 456.3c66.4 24.4 135.5 43.5 206.1 47.5 70.7 4 143.3-7.7 205.4-41.6-75.7 10.9-152.7 21.8-228.2 9.9-53.3-8.4-103.9-28-152.5-50.9-45.7-21.5-73-30.8-108 14.3 27.1 3.5 51.7 11.4 77.2 20.8z" fill="#EA8B70" opacity=".8" p-id="1268"></path><path d="M669.4 852.6c12.4-4.7 23.6-12.2 34.6-19.5 14.8-9.9 29.7-19.9 44.5-29.8-30.2 28.9-64.8 58.3-106.5 61 8.2 9.8 22.2 11.7 34.8 14.3 12.5 2.6 26.6 8.3 30 20.6-14.4-7.7-30.3-12.5-46.5-14.1-0.2 11.8 3 23.7 9.1 33.9-16.6-6.2-12-34-26.5-44.3-3.4-2.5-7.6-3.6-11.7-4.7-10.8-3-21.7-5.9-32.5-8.9 16.1 4.3 55.4-2.8 70.7-8.5z" fill="#A02A0E" p-id="1269"></path><path d="M721.6 534.6c1.3 5.6 4.7 47 5.9 52.6 1.6 7.3 2.3 11.3 6.5 20.3 3.2 6.8 1.5 15 2.9 22.4 1.4 7.1 3.4 14.1 5.3 21.1 15 53.8 30.3 108.1 57.5 156.8 5.1 9.1 10.6 18.1 14 28 4.1 12.2 4.7 25.2 7.8 37.7 3 12.5 9.3 25.2 20.7 31 4.4-53.8-31.1-103.5-33.6-157.5-0.3-7.4-0.1-14.9-2.3-21.9-1.5-4.8-4.1-9.2-5.4-14-2.2-8.2-0.6-17.2-3.5-25.3-1.5-4.2-4.2-7.9-5.8-12.2-4.5-12.1 1.3-25.9-2.1-38.4-2-7.5-7.1-13.8-11.5-20.3-20.3-29.8-27-65.9-40.1-98.9-3.6-9.1 0.7-16.1-18-36.6-8.7 12.7-1.6 41.5 1.7 55.2z" fill="#BC6265" p-id="1270"></path><path d="M723.3 589.2c0.1 1.8 9.7 26.4 9.8 28.3-8.2-19.4-18-31.6-19.3-69.7-0.2-4.8-1.7-16.9-2.7-21.7-0.8-3.5-0.8-7.2-0.8-10.8 0-14.9 0.1-29.7 0.1-44.6-0.9 21.6 0.3 55.3 8.2 75.4 2.7 6.6 2.5 16.1 4.7 43.1z" fill="#FFE8D4" p-id="1271"></path><path d="M749.8 657.2c2.3 12.4 0.9 51.7 4.6 63.8 1.6 7.6 7.7 19.1 9.1 35.8 0.9 11 0 23.5-8.1 43.6 18.2-24.4 10.8-88.5 7.7-103.6 1.9 3.4 25.9 58.7 28.3 62.9 14.2 25.2 23.1 61 30.8 82.9-6.1-24.6-12.7-59.7-23.1-82.9-5.5-12.4-5.5-25.6-12.5-35.1-4.8-6.4-21.4-31.9-24.7-41.7-3-9 0.4-36.1-3.8-52.3 4.9 7.9 25.1 35.1 26.7 40.6 1.5 5.2 1.4 9.4 3 17.1 2.5 11.7 8.3 22.1 11.2 32.6-1.7-16-1.2-26.9-4.2-37.5-7.1-25-25.6-44.9-35.4-61.7-4.5-7.6-16.4-15.2-21.4-29.5-6.5-18.2-6-43.3-11.2-49.3 1 24.5-0.6 30.3 2.8 44.4 7.3 30.1 14.3 37.7 20.2 69.9z" fill="#FFE8D4" opacity=".8" p-id="1272"></path><path d="M793.5 722.6c-6-6.5-9.8-14.9-15.9-21.4-1.2-1.3-2.1-2.5-3.4-3.7-3.1-3.1-6.2-6.3-9.3-9.4-0.9-0.9-1.9-1.9-2.5-3.1-0.5-0.9-0.8-1.9-1.1-2.8-2.9-10.3 0.1-21.2 0.2-31.9 0-5.8-0.4-11.6-2.1-17.2v0.4c0 5 3.8 9.4 5.4 14.1 0.7 1.9 1.4 3.8 1.7 5.8 0.3 1.9 0.4 3.9 0.5 5.8 0.8 13.7 6.4 26.6 13 38.6 1 1.9 2.1 3.7 3.3 5.4 1 1.4 2.1 2.7 3 4.1 1.3 1.9 2.3 4.1 3.3 6.2 2 4.2 4.1 8.5 6.1 12.7 0-1.8-1-2.4-2.2-3.6zM794.8 772c-0.9-2.5-2.5-4.9-3.3-7.4-3.6-11.3-18.2-49.5-27-59.5 4.4 4.1 9.7 39.9 12.4 45.3 1.9 3.7 3.4 7.7 5.1 11.5 5 10.8 12.3 20.4 18.4 30.6 1.5 2.5 7.4 12.3 8.3 14.8-1.5-8.2-9.1-21.7-13.9-35.3z" fill="#A02A0E" p-id="1273"></path><path d="M752.1 537.1c-7.7-16.1-16.5-31.8-23-48.3-1.3-3.2-2.6-6.5-4.7-9.2-2.7-3.6-8.6-9.9-10.6-13.9 11.8 11.5 14 13.6 16.5 19 7.9 16.8 12.1 31.5 21.2 47.6 3.1 5.5 3.4 8.1 6.2 16.2 1 3.2 1.4 3.4-5.6-11.4z" fill="#FFE8D4" p-id="1274"></path><path d="M194 822.5c17.8 3.2 35.9 3.5 53.8 6.2 29.5 4.5 57.5 15.5 85.7 25.3 119.3 41.4 248.3 61.2 372.5 38.8 18.9-3.4 37.9-7.8 57-5.9 24.3 2.4 47.3 15.4 61.9 34.9-17.5 8.1-37.6 7.9-56.9 8-51.7 0.2-103.3 3.3-154.7 9.3-22.4 2.6-44.8 5.8-67.3 7.8-103.9 9.3-208.3-6.9-311.4-22.9-14.2-2.2-28.6-4.5-41.9-10-23.1-9.6-41.6-28.5-54-50.3-12.4-21.7-19.3-46.2-24-70.8-0.7-3.7 13.7 7.2 13.8 7.3 5.3 3.4 11.4 5.5 17.3 7.8 15.6 6 31.6 11.5 48.2 14.5z" fill="#A02A0E" opacity=".5" p-id="1275"></path><path d="M287.2 491.6c9.2 1.6 18.6 2.3 27.6 4.5 8.8 2.1 17.2 5.6 25.6 8.8 28.7 11.2 58.1 20.7 87.9 28.5-20.6 2.1-41.1 4.1-61.7 6.2-7.2 0.7-14.5 1.5-21.2 4.1-9.8 3.9-17.6 11.4-26.5 17.1-18.3 11.7-40.6 15-62.1 18 11.1-3.5 17.9-15.7 18.1-27.4 0.2-11.7-5.1-22.8-11.7-32.4-13.9-20.3-33.5-33.6-52.6-48.4 14.7-8.6 58.3 17.9 76.6 21z" fill="#CD3910" p-id="1276"></path><path d="M315.8 448.2c-20.9 7.1-44 13.5-64.4 5.3-7.3-2.9-13.8-7.5-21-10.5-12.4-5.1-26.8-5-39.1 0.1 13.3-18.2 30.8-33.2 50.7-43.6-12.4 11.8-25.4 23.7-37.8 35.5 10.8-1.3 22 0.1 32.2 4 8.1 3.1 15.5 7.8 23.7 10.7 17.8 6.3 37.1 2.8 55.7-1.5z" fill="#FFE8D4" opacity=".8" p-id="1277"></path><path d="M195.4 847.3c-15.6-4.2-31.1-8.4-46.7-12.6-12.7-3.4-25.7-7-36.3-14.9 22.8 3.4 65.4 6.9 65.4 6.9s-29.6-9.5-46.6-10.2c-5-0.2-15.5-2.1-19.8-4.6-2.3-5.9-3.4-9.7-4.7-16.9-1.5-8.4-2.1-16.9-1.8-25.3 4.1 5.8 4.2 13.2 5.4 20.2 1.3 7 3.8 14.5 10.1 18 3.3 1.8 7.1 2.2 10.8 2.6 25.8 3 83.1 22.6 83.1 22.6s-61.1-5.1-75.8-7c11.9 3 47.2 13.6 56.9 21.2z" fill="#A02A0E" p-id="1278"></path></svg>