<?xml version="1.0" standalone="no"?><!DOCTYPE svg PUBLIC "-//W3C//DTD SVG 1.1//EN" "http://www.w3.org/Graphics/SVG/1.1/DTD/svg11.dtd"><svg t="1670341390449" class="icon" viewBox="0 0 1024 1024" version="1.1" xmlns="http://www.w3.org/2000/svg" p-id="21103" width="128" height="128" xmlns:xlink="http://www.w3.org/1999/xlink"><path d="M724 333c-58.1-58.1-151.8-58.8-211-2.4-43.1-41.2-104.5-51.8-157.2-32.1 112.3 98 198.9 241.1 227.8 388.4 62-62 142.3-142.4 142.8-143 56.4-59.2 55.7-152.8-2.4-210.9z" fill="#f0c04c" p-id="21104"></path><path d="M513 747.8c-17.8 0-34.5-6.9-47.1-19.5L290.4 552.5c-29.6-31-45.6-71.8-45.2-114.6 0.5-43 17.4-83.4 47.8-113.8 30.4-30.4 70.9-47.4 113.9-47.9 39-0.4 76.2 12.9 106 37.6 29.8-24.7 67-38 106-37.6 43 0.4 83.5 17.4 113.9 47.8 30.4 30.4 47.4 70.8 47.8 113.8 0.5 42.9-15.6 83.6-45.2 114.6-0.2 0.2-0.8 0.9-175.5 175.7-12.4 12.7-29.1 19.7-46.9 19.7zM308.6 535.1c2.4 2.4 61.3 61.4 175.1 175.3 7.8 7.8 18.3 12.2 29.3 12.2 11.1 0 21.5-4.3 29.3-12.2 40.3-40.3 171.5-171.6 175.1-175.3 52.2-54.9 51.2-139.7-2.3-193.2-52.7-52.7-139.5-53.7-193.4-2.2L513 348l-8.7-8.3c-53.9-51.5-140.7-50.6-193.4 2.2-53.5 53.5-54.5 138.3-2.3 193.2z" fill="#f0c04c" p-id="21105"></path></svg>